<svg version="1.1" xmlns="http://www.w3.org/2000/svg" xmlns:xlink="http://www.w3.org/1999/xlink" width="700" height="250" style="width: 700px; height: 250px;"><defs><clipPath id="VopRGiGGdxpr"><path fill="none" stroke="none" d=" M 228 37 L 670 37 L 670 217 L 228 217 L 228 37 Z"/></clipPath><clipPath id="fMkPnyaCRKdZ"><path fill="none" stroke="none" d=" M 228 37 L 670 37 L 670 217 L 228 217 L 228 37 Z"/></clipPath><clipPath id="MLlNqdCQFozH"><path fill="none" stroke="none" d=" M 228 37 L 670 37 L 670 217 L 228 217 L 228 37 Z"/></clipPath><clipPath id="HAmpwLfzwKOy"><path fill="none" stroke="none" d=" M 228 37 L 670 37 L 670 217 L 228 217 L 228 37 Z"/></clipPath><clipPath id="UADdzoCaecId"><path fill="none" stroke="none" d=" M 228 37 L 670 37 L 670 217 L 228 217 L 228 37 Z"/></clipPath><clipPath id="eRwofQIGJIxF"><path fill="none" stroke="none" d=" M 228 37 L 670 37 L 670 217 L 228 217 L 228 37 Z"/></clipPath><clipPath id="ObdvISeJZhLE"><path fill="none" stroke="none" d=" M 228 37 L 670 37 L 670 217 L 228 217 L 228 37 Z"/></clipPath><clipPath id="OSnLIISSoSJU"><path fill="none" stroke="none" d=" M 228 37 L 670 37 L 670 217 L 228 217 L 228 37 Z"/></clipPath><clipPath id="ZgqwOHwIWziO"><path fill="none" stroke="none" d=" M 228 37 L 670 37 L 670 217 L 228 217 L 228 37 Z"/></clipPath><clipPath id="HgpIgSEZAVXZ"><path fill="none" stroke="none" d=" M 228 37 L 670 37 L 670 217 L 228 217 L 228 37 Z"/></clipPath></defs><g><g transform="scale(1,1) translate(0.5,0.5)"><rect fill="#FFFFFF" stroke="none" x="0" y="0" width="700" height="250"/><rect fill="#ffffff" stroke="none" x="0" y="0" width="700" height="250"/><rect fill="#FFFFFF" stroke="none" x="228" y="37" width="442" height="180"/><rect fill="#ffffff" stroke="none" x="228" y="37" width="442" height="180"/><g><rect fill="none" stroke="#e5e5e5" x="228" y="37" width="442" height="180" stroke-linejoin="bevel" stroke-miterlimit="10"/></g><g clip-path="url(#VopRGiGGdxpr)"><g><g><path fill="none" stroke="#e5e5e5" paint-order="fill stroke markers" d=" M 324 217 L 324 37" stroke-linejoin="bevel" stroke-miterlimit="10"/><path fill="none" stroke="#e5e5e5" paint-order="fill stroke markers" d=" M 421 217 L 421 37" stroke-linejoin="bevel" stroke-miterlimit="10"/><path fill="none" stroke="#e5e5e5" paint-order="fill stroke markers" d=" M 517 217 L 517 37" stroke-linejoin="bevel" stroke-miterlimit="10"/><path fill="none" stroke="#e5e5e5" paint-order="fill stroke markers" d=" M 613 217 L 613 37" stroke-linejoin="bevel" stroke-miterlimit="10"/></g></g></g><g clip-path="url(#fMkPnyaCRKdZ)"><g><g/></g></g><g clip-path="url(#MLlNqdCQFozH)"><g><g><path fill="none" stroke="none"/><path fill="#440154" stroke="none" paint-order="stroke fill markers" d=" M 228 164.5 L 650.7407407407406 164.5 L 650.7407407407406 209.5 L 228 209.5 L 228 164.5 Z" fill-opacity="0.8"/><path fill="none" stroke="#440154" paint-order="fill stroke markers" d=" M 228 164.5 L 650.7407407407406 164.5 L 650.7407407407406 209.5 L 228 209.5 L 228 164.5 Z" stroke-linejoin="bevel" stroke-miterlimit="10" stroke-opacity="0.8"/><path fill="#208F8C" stroke="none" paint-order="stroke fill markers" d=" M 228 104.5 L 235.7037037037037 104.5 L 235.7037037037037 149.5 L 228 149.5 L 228 104.5 Z" fill-opacity="0.8"/><path fill="none" stroke="#208F8C" paint-order="fill stroke markers" d=" M 228 104.5 L 235.7037037037037 104.5 L 235.7037037037037 149.5 L 228 149.5 L 228 104.5 Z" stroke-linejoin="bevel" stroke-miterlimit="10" stroke-opacity="0.8"/><path fill="#FDE724" stroke="none" paint-order="stroke fill markers" d=" M 228 44.5 L 299.25925925925924 44.5 L 299.25925925925924 89.5 L 228 89.5 L 228 44.5 Z" fill-opacity="0.8"/><path fill="none" stroke="#FDE724" paint-order="fill stroke markers" d=" M 228 44.5 L 299.25925925925924 44.5 L 299.25925925925924 89.5 L 228 89.5 L 228 44.5 Z" stroke-linejoin="bevel" stroke-miterlimit="10" stroke-opacity="0.8"/></g></g></g><g clip-path="url(#HAmpwLfzwKOy)"><g><g/><g><path fill="#ffffff" stroke="#e5e5e5" paint-order="fill stroke markers" d=" M 582.4500007629395 47 L 660 47 L 660 133 L 582.4500007629395 133 L 582.4500007629395 47 Z" fill-opacity="0.95" stroke-linejoin="bevel" stroke-miterlimit="10" stroke-opacity="0.5"/><text fill="#444444" stroke="none" font-family="helvetica" font-size="13px" font-style="normal" font-weight="normal" text-decoration="normal" x="617.4500007629395" y="67" text-anchor="start" dominant-baseline="central">21.95</text><rect fill="#440154" stroke="none" x="594.4500007629395" y="59" width="16" height="16" fill-opacity="0.8"/><path fill="none" stroke="#440154" paint-order="fill stroke markers" d=" M 594.4500007629395 59 L 610.4500007629395 59 L 610.4500007629395 75 L 594.4500007629395 75 L 594.4500007629395 59 Z" stroke-linejoin="bevel" stroke-miterlimit="10" stroke-opacity="0.8"/><text fill="#444444" stroke="none" font-family="helvetica" font-size="13px" font-style="normal" font-weight="normal" text-decoration="normal" x="617.4500007629395" y="90" text-anchor="start" dominant-baseline="central">0.4%</text><rect fill="#208F8C" stroke="none" x="594.4500007629395" y="82" width="16" height="16" fill-opacity="0.8"/><path fill="none" stroke="#208F8C" paint-order="fill stroke markers" d=" M 594.4500007629395 82 L 610.4500007629395 82 L 610.4500007629395 98 L 594.4500007629395 98 L 594.4500007629395 82 Z" stroke-linejoin="bevel" stroke-miterlimit="10" stroke-opacity="0.8"/><text fill="#444444" stroke="none" font-family="helvetica" font-size="13px" font-style="normal" font-weight="normal" text-decoration="normal" x="617.4500007629395" y="113" text-anchor="start" dominant-baseline="central">3.7%</text><rect fill="#FDE724" stroke="none" x="594.4500007629395" y="105" width="16" height="16" fill-opacity="0.8"/><path fill="none" stroke="#FDE724" paint-order="fill stroke markers" d=" M 594.4500007629395 105 L 610.4500007629395 105 L 610.4500007629395 121 L 594.4500007629395 121 L 594.4500007629395 105 Z" stroke-linejoin="bevel" stroke-miterlimit="10" stroke-opacity="0.8"/></g></g></g><g><g fill="#444444"><path fill="" stroke="none" d=""/><g transform="translate(449,5)"><path fill="none" stroke="none"/><text fill="" stroke="none" font-family="helvetica" font-size="14pt" font-style="normal" font-weight="bold" text-decoration="normal" x="0" y="0" text-anchor="middle" dominant-baseline="text-before-edge">Model Quality: Molprobity Analysis</text></g></g></g><g/><g><g fill="#444444"><path fill="none" stroke="black" paint-order="fill stroke markers" d=" M 228 217 L 670 217" stroke-linejoin="bevel" stroke-miterlimit="10"/><path fill="none" stroke="black" paint-order="fill stroke markers" d=" M 228 223 L 228 215" stroke-linejoin="bevel" stroke-miterlimit="10"/><path fill="none" stroke="black" paint-order="fill stroke markers" d=" M 324 223 L 324 215" stroke-linejoin="bevel" stroke-miterlimit="10"/><path fill="none" stroke="black" paint-order="fill stroke markers" d=" M 421 223 L 421 215" stroke-linejoin="bevel" stroke-miterlimit="10"/><path fill="none" stroke="black" paint-order="fill stroke markers" d=" M 517 223 L 517 215" stroke-linejoin="bevel" stroke-miterlimit="10"/><path fill="none" stroke="black" paint-order="fill stroke markers" d=" M 613 223 L 613 215" stroke-linejoin="bevel" stroke-miterlimit="10"/><path fill="none" stroke="black" paint-order="fill stroke markers" d=" M 228 221 L 228 217" stroke-linejoin="bevel" stroke-miterlimit="10"/><path fill="none" stroke="black" paint-order="fill stroke markers" d=" M 247 221 L 247 217" stroke-linejoin="bevel" stroke-miterlimit="10"/><path fill="none" stroke="black" paint-order="fill stroke markers" d=" M 267 221 L 267 217" stroke-linejoin="bevel" stroke-miterlimit="10"/><path fill="none" stroke="black" paint-order="fill stroke markers" d=" M 286 221 L 286 217" stroke-linejoin="bevel" stroke-miterlimit="10"/><path fill="none" stroke="black" paint-order="fill stroke markers" d=" M 305 221 L 305 217" stroke-linejoin="bevel" stroke-miterlimit="10"/><path fill="none" stroke="black" paint-order="fill stroke markers" d=" M 324 221 L 324 217" stroke-linejoin="bevel" stroke-miterlimit="10"/><path fill="none" stroke="black" paint-order="fill stroke markers" d=" M 344 221 L 344 217" stroke-linejoin="bevel" stroke-miterlimit="10"/><path fill="none" stroke="black" paint-order="fill stroke markers" d=" M 363 221 L 363 217" stroke-linejoin="bevel" stroke-miterlimit="10"/><path fill="none" stroke="black" paint-order="fill stroke markers" d=" M 382 221 L 382 217" stroke-linejoin="bevel" stroke-miterlimit="10"/><path fill="none" stroke="black" paint-order="fill stroke markers" d=" M 401 221 L 401 217" stroke-linejoin="bevel" stroke-miterlimit="10"/><path fill="none" stroke="black" paint-order="fill stroke markers" d=" M 421 221 L 421 217" stroke-linejoin="bevel" stroke-miterlimit="10"/><path fill="none" stroke="black" paint-order="fill stroke markers" d=" M 440 221 L 440 217" stroke-linejoin="bevel" stroke-miterlimit="10"/><path fill="none" stroke="black" paint-order="fill stroke markers" d=" M 459 221 L 459 217" stroke-linejoin="bevel" stroke-miterlimit="10"/><path fill="none" stroke="black" paint-order="fill stroke markers" d=" M 478 221 L 478 217" stroke-linejoin="bevel" stroke-miterlimit="10"/><path fill="none" stroke="black" paint-order="fill stroke markers" d=" M 498 221 L 498 217" stroke-linejoin="bevel" stroke-miterlimit="10"/><path fill="none" stroke="black" paint-order="fill stroke markers" d=" M 517 221 L 517 217" stroke-linejoin="bevel" stroke-miterlimit="10"/><path fill="none" stroke="black" paint-order="fill stroke markers" d=" M 536 221 L 536 217" stroke-linejoin="bevel" stroke-miterlimit="10"/><path fill="none" stroke="black" paint-order="fill stroke markers" d=" M 555 221 L 555 217" stroke-linejoin="bevel" stroke-miterlimit="10"/><path fill="none" stroke="black" paint-order="fill stroke markers" d=" M 575 221 L 575 217" stroke-linejoin="bevel" stroke-miterlimit="10"/><path fill="none" stroke="black" paint-order="fill stroke markers" d=" M 594 221 L 594 217" stroke-linejoin="bevel" stroke-miterlimit="10"/><path fill="none" stroke="black" paint-order="fill stroke markers" d=" M 613 221 L 613 217" stroke-linejoin="bevel" stroke-miterlimit="10"/><path fill="none" stroke="black" paint-order="fill stroke markers" d=" M 632 221 L 632 217" stroke-linejoin="bevel" stroke-miterlimit="10"/><path fill="" stroke="black" paint-order="fill stroke markers" d=" M 652 221 L 652 217" stroke-linejoin="bevel" stroke-miterlimit="10"/><g transform="translate(228,228) rotate(0,0,0)"><text fill="" stroke="none" font-family="helvetica" font-size="14pt" font-style="normal" font-weight="normal" text-decoration="normal" x="0" y="0" text-anchor="middle" dominant-baseline="hanging">0</text><g transform="rotate(0,0,0) translate(-228,-228) translate(324,228) rotate(0,0,0)"><text fill="" stroke="none" font-family="helvetica" font-size="14pt" font-style="normal" font-weight="normal" text-decoration="normal" x="0" y="0" text-anchor="middle" dominant-baseline="hanging">5</text><g transform="rotate(0,0,0) translate(-324,-228) translate(421,228) rotate(0,0,0)"><text fill="" stroke="none" font-family="helvetica" font-size="14pt" font-style="normal" font-weight="normal" text-decoration="normal" x="0" y="0" text-anchor="middle" dominant-baseline="hanging">10</text><g transform="rotate(0,0,0) translate(-421,-228) translate(517,228) rotate(0,0,0)"><text fill="" stroke="none" font-family="helvetica" font-size="14pt" font-style="normal" font-weight="normal" text-decoration="normal" x="0" y="0" text-anchor="middle" dominant-baseline="hanging">15</text><g transform="rotate(0,0,0) translate(-517,-228) translate(613,228) rotate(0,0,0)"><text fill="" stroke="none" font-family="helvetica" font-size="14pt" font-style="normal" font-weight="normal" text-decoration="normal" x="0" y="0" text-anchor="middle" dominant-baseline="hanging">20</text><g transform="rotate(0,0,0) translate(-613,-228)"/></g></g></g></g></g></g></g><g><g fill="#444444"><path fill="none" stroke="black" paint-order="fill stroke markers" d=" M 228 217 L 228 37" stroke-linejoin="bevel" stroke-miterlimit="10"/><path fill="none" stroke="black" paint-order="fill stroke markers" d=" M 222 187 L 230 187" stroke-linejoin="bevel" stroke-miterlimit="10"/><path fill="none" stroke="black" paint-order="fill stroke markers" d=" M 222 127 L 230 127" stroke-linejoin="bevel" stroke-miterlimit="10"/><path fill="" stroke="black" paint-order="fill stroke markers" d=" M 222 67 L 230 67" stroke-linejoin="bevel" stroke-miterlimit="10"/><g transform="translate(217,187) rotate(0,0,0)"><text fill="" stroke="none" font-family="helvetica" font-size="14pt" font-style="normal" font-weight="normal" text-decoration="normal" x="0" y="0" text-anchor="end" dominant-baseline="central">Clashscore</text><g transform="rotate(0,0,0) translate(-217,-187) translate(217,127) rotate(0,0,0)"><text fill="" stroke="none" font-family="helvetica" font-size="14pt" font-style="normal" font-weight="normal" text-decoration="normal" x="0" y="0" text-anchor="end" dominant-baseline="central">Ramachandran Outliers</text><g transform="rotate(0,0,0) translate(-217,-127) translate(217,67) rotate(0,0,0)"><text fill="" stroke="none" font-family="helvetica" font-size="14pt" font-style="normal" font-weight="normal" text-decoration="normal" x="0" y="0" text-anchor="end" dominant-baseline="central">Sidechain Outliers</text><g transform="rotate(0,0,0) translate(-217,-67)"/></g></g></g></g></g><g clip-path="url(#UADdzoCaecId)"><g/></g></g><g transform="scale(1,1) translate(0.5,0.5)"><rect fill="#FFFFFF" stroke="none" x="0" y="0" width="700" height="250"/><rect fill="#ffffff" stroke="none" x="0" y="0" width="700" height="250"/><rect fill="#FFFFFF" stroke="none" x="228" y="37" width="442" height="180"/><rect fill="#ffffff" stroke="none" x="228" y="37" width="442" height="180"/><g><rect fill="none" stroke="#e5e5e5" x="228" y="37" width="442" height="180" stroke-linejoin="bevel" stroke-miterlimit="10"/></g><g clip-path="url(#eRwofQIGJIxF)"><g><g><path fill="none" stroke="#e5e5e5" paint-order="fill stroke markers" d=" M 324 217 L 324 37" stroke-linejoin="bevel" stroke-miterlimit="10"/><path fill="none" stroke="#e5e5e5" paint-order="fill stroke markers" d=" M 421 217 L 421 37" stroke-linejoin="bevel" stroke-miterlimit="10"/><path fill="none" stroke="#e5e5e5" paint-order="fill stroke markers" d=" M 517 217 L 517 37" stroke-linejoin="bevel" stroke-miterlimit="10"/><path fill="none" stroke="#e5e5e5" paint-order="fill stroke markers" d=" M 613 217 L 613 37" stroke-linejoin="bevel" stroke-miterlimit="10"/></g></g></g><g clip-path="url(#ObdvISeJZhLE)"><g><g/></g></g><g clip-path="url(#OSnLIISSoSJU)"><g><g><path fill="none" stroke="none"/><path fill="#440154" stroke="none" paint-order="stroke fill markers" d=" M 228 164.5 L 650.7407407407406 164.5 L 650.7407407407406 209.5 L 228 209.5 L 228 164.5 Z" fill-opacity="0.8"/><path fill="none" stroke="#440154" paint-order="fill stroke markers" d=" M 228 164.5 L 650.7407407407406 164.5 L 650.7407407407406 209.5 L 228 209.5 L 228 164.5 Z" stroke-linejoin="bevel" stroke-miterlimit="10" stroke-opacity="0.8"/><path fill="#208F8C" stroke="none" paint-order="stroke fill markers" d=" M 228 104.5 L 235.7037037037037 104.5 L 235.7037037037037 149.5 L 228 149.5 L 228 104.5 Z" fill-opacity="0.8"/><path fill="none" stroke="#208F8C" paint-order="fill stroke markers" d=" M 228 104.5 L 235.7037037037037 104.5 L 235.7037037037037 149.5 L 228 149.5 L 228 104.5 Z" stroke-linejoin="bevel" stroke-miterlimit="10" stroke-opacity="0.8"/><path fill="#FDE724" stroke="none" paint-order="stroke fill markers" d=" M 228 44.5 L 299.25925925925924 44.5 L 299.25925925925924 89.5 L 228 89.5 L 228 44.5 Z" fill-opacity="0.8"/><path fill="none" stroke="#FDE724" paint-order="fill stroke markers" d=" M 228 44.5 L 299.25925925925924 44.5 L 299.25925925925924 89.5 L 228 89.5 L 228 44.5 Z" stroke-linejoin="bevel" stroke-miterlimit="10" stroke-opacity="0.8"/></g></g></g><g clip-path="url(#ZgqwOHwIWziO)"><g><g/><g><path fill="#ffffff" stroke="#e5e5e5" paint-order="fill stroke markers" d=" M 582.4500007629395 47 L 660 47 L 660 133 L 582.4500007629395 133 L 582.4500007629395 47 Z" fill-opacity="0.95" stroke-linejoin="bevel" stroke-miterlimit="10" stroke-opacity="0.5"/><text fill="#444444" stroke="none" font-family="helvetica" font-size="13px" font-style="normal" font-weight="normal" text-decoration="normal" x="617.4500007629395" y="67" text-anchor="start" dominant-baseline="central">21.95</text><rect fill="#440154" stroke="none" x="594.4500007629395" y="59" width="16" height="16" fill-opacity="0.8"/><path fill="none" stroke="#440154" paint-order="fill stroke markers" d=" M 594.4500007629395 59 L 610.4500007629395 59 L 610.4500007629395 75 L 594.4500007629395 75 L 594.4500007629395 59 Z" stroke-linejoin="bevel" stroke-miterlimit="10" stroke-opacity="0.8"/><text fill="#444444" stroke="none" font-family="helvetica" font-size="13px" font-style="normal" font-weight="normal" text-decoration="normal" x="617.4500007629395" y="90" text-anchor="start" dominant-baseline="central">0.4%</text><rect fill="#208F8C" stroke="none" x="594.4500007629395" y="82" width="16" height="16" fill-opacity="0.8"/><path fill="none" stroke="#208F8C" paint-order="fill stroke markers" d=" M 594.4500007629395 82 L 610.4500007629395 82 L 610.4500007629395 98 L 594.4500007629395 98 L 594.4500007629395 82 Z" stroke-linejoin="bevel" stroke-miterlimit="10" stroke-opacity="0.8"/><text fill="#444444" stroke="none" font-family="helvetica" font-size="13px" font-style="normal" font-weight="normal" text-decoration="normal" x="617.4500007629395" y="113" text-anchor="start" dominant-baseline="central">3.7%</text><rect fill="#FDE724" stroke="none" x="594.4500007629395" y="105" width="16" height="16" fill-opacity="0.8"/><path fill="none" stroke="#FDE724" paint-order="fill stroke markers" d=" M 594.4500007629395 105 L 610.4500007629395 105 L 610.4500007629395 121 L 594.4500007629395 121 L 594.4500007629395 105 Z" stroke-linejoin="bevel" stroke-miterlimit="10" stroke-opacity="0.8"/></g></g></g><g><g fill="#444444"><path fill="" stroke="none" d=""/><g transform="translate(449,5)"><path fill="none" stroke="none"/><text fill="" stroke="none" font-family="helvetica" font-size="14pt" font-style="normal" font-weight="bold" text-decoration="normal" x="0" y="0" text-anchor="middle" dominant-baseline="text-before-edge">Model Quality: Molprobity Analysis</text></g></g></g><g/><g><g fill="#444444"><path fill="none" stroke="black" paint-order="fill stroke markers" d=" M 228 217 L 670 217" stroke-linejoin="bevel" stroke-miterlimit="10"/><path fill="none" stroke="black" paint-order="fill stroke markers" d=" M 228 223 L 228 215" stroke-linejoin="bevel" stroke-miterlimit="10"/><path fill="none" stroke="black" paint-order="fill stroke markers" d=" M 324 223 L 324 215" stroke-linejoin="bevel" stroke-miterlimit="10"/><path fill="none" stroke="black" paint-order="fill stroke markers" d=" M 421 223 L 421 215" stroke-linejoin="bevel" stroke-miterlimit="10"/><path fill="none" stroke="black" paint-order="fill stroke markers" d=" M 517 223 L 517 215" stroke-linejoin="bevel" stroke-miterlimit="10"/><path fill="none" stroke="black" paint-order="fill stroke markers" d=" M 613 223 L 613 215" stroke-linejoin="bevel" stroke-miterlimit="10"/><path fill="none" stroke="black" paint-order="fill stroke markers" d=" M 228 221 L 228 217" stroke-linejoin="bevel" stroke-miterlimit="10"/><path fill="none" stroke="black" paint-order="fill stroke markers" d=" M 247 221 L 247 217" stroke-linejoin="bevel" stroke-miterlimit="10"/><path fill="none" stroke="black" paint-order="fill stroke markers" d=" M 267 221 L 267 217" stroke-linejoin="bevel" stroke-miterlimit="10"/><path fill="none" stroke="black" paint-order="fill stroke markers" d=" M 286 221 L 286 217" stroke-linejoin="bevel" stroke-miterlimit="10"/><path fill="none" stroke="black" paint-order="fill stroke markers" d=" M 305 221 L 305 217" stroke-linejoin="bevel" stroke-miterlimit="10"/><path fill="none" stroke="black" paint-order="fill stroke markers" d=" M 324 221 L 324 217" stroke-linejoin="bevel" stroke-miterlimit="10"/><path fill="none" stroke="black" paint-order="fill stroke markers" d=" M 344 221 L 344 217" stroke-linejoin="bevel" stroke-miterlimit="10"/><path fill="none" stroke="black" paint-order="fill stroke markers" d=" M 363 221 L 363 217" stroke-linejoin="bevel" stroke-miterlimit="10"/><path fill="none" stroke="black" paint-order="fill stroke markers" d=" M 382 221 L 382 217" stroke-linejoin="bevel" stroke-miterlimit="10"/><path fill="none" stroke="black" paint-order="fill stroke markers" d=" M 401 221 L 401 217" stroke-linejoin="bevel" stroke-miterlimit="10"/><path fill="none" stroke="black" paint-order="fill stroke markers" d=" M 421 221 L 421 217" stroke-linejoin="bevel" stroke-miterlimit="10"/><path fill="none" stroke="black" paint-order="fill stroke markers" d=" M 440 221 L 440 217" stroke-linejoin="bevel" stroke-miterlimit="10"/><path fill="none" stroke="black" paint-order="fill stroke markers" d=" M 459 221 L 459 217" stroke-linejoin="bevel" stroke-miterlimit="10"/><path fill="none" stroke="black" paint-order="fill stroke markers" d=" M 478 221 L 478 217" stroke-linejoin="bevel" stroke-miterlimit="10"/><path fill="none" stroke="black" paint-order="fill stroke markers" d=" M 498 221 L 498 217" stroke-linejoin="bevel" stroke-miterlimit="10"/><path fill="none" stroke="black" paint-order="fill stroke markers" d=" M 517 221 L 517 217" stroke-linejoin="bevel" stroke-miterlimit="10"/><path fill="none" stroke="black" paint-order="fill stroke markers" d=" M 536 221 L 536 217" stroke-linejoin="bevel" stroke-miterlimit="10"/><path fill="none" stroke="black" paint-order="fill stroke markers" d=" M 555 221 L 555 217" stroke-linejoin="bevel" stroke-miterlimit="10"/><path fill="none" stroke="black" paint-order="fill stroke markers" d=" M 575 221 L 575 217" stroke-linejoin="bevel" stroke-miterlimit="10"/><path fill="none" stroke="black" paint-order="fill stroke markers" d=" M 594 221 L 594 217" stroke-linejoin="bevel" stroke-miterlimit="10"/><path fill="none" stroke="black" paint-order="fill stroke markers" d=" M 613 221 L 613 217" stroke-linejoin="bevel" stroke-miterlimit="10"/><path fill="none" stroke="black" paint-order="fill stroke markers" d=" M 632 221 L 632 217" stroke-linejoin="bevel" stroke-miterlimit="10"/><path fill="" stroke="black" paint-order="fill stroke markers" d=" M 652 221 L 652 217" stroke-linejoin="bevel" stroke-miterlimit="10"/><g transform="translate(228,228) rotate(0,0,0)"><text fill="" stroke="none" font-family="helvetica" font-size="14pt" font-style="normal" font-weight="normal" text-decoration="normal" x="0" y="0" text-anchor="middle" dominant-baseline="hanging">0</text><g transform="rotate(0,0,0) translate(-228,-228) translate(324,228) rotate(0,0,0)"><text fill="" stroke="none" font-family="helvetica" font-size="14pt" font-style="normal" font-weight="normal" text-decoration="normal" x="0" y="0" text-anchor="middle" dominant-baseline="hanging">5</text><g transform="rotate(0,0,0) translate(-324,-228) translate(421,228) rotate(0,0,0)"><text fill="" stroke="none" font-family="helvetica" font-size="14pt" font-style="normal" font-weight="normal" text-decoration="normal" x="0" y="0" text-anchor="middle" dominant-baseline="hanging">10</text><g transform="rotate(0,0,0) translate(-421,-228) translate(517,228) rotate(0,0,0)"><text fill="" stroke="none" font-family="helvetica" font-size="14pt" font-style="normal" font-weight="normal" text-decoration="normal" x="0" y="0" text-anchor="middle" dominant-baseline="hanging">15</text><g transform="rotate(0,0,0) translate(-517,-228) translate(613,228) rotate(0,0,0)"><text fill="" stroke="none" font-family="helvetica" font-size="14pt" font-style="normal" font-weight="normal" text-decoration="normal" x="0" y="0" text-anchor="middle" dominant-baseline="hanging">20</text><g transform="rotate(0,0,0) translate(-613,-228)"/></g></g></g></g></g></g></g><g><g fill="#444444"><path fill="none" stroke="black" paint-order="fill stroke markers" d=" M 228 217 L 228 37" stroke-linejoin="bevel" stroke-miterlimit="10"/><path fill="none" stroke="black" paint-order="fill stroke markers" d=" M 222 187 L 230 187" stroke-linejoin="bevel" stroke-miterlimit="10"/><path fill="none" stroke="black" paint-order="fill stroke markers" d=" M 222 127 L 230 127" stroke-linejoin="bevel" stroke-miterlimit="10"/><path fill="" stroke="black" paint-order="fill stroke markers" d=" M 222 67 L 230 67" stroke-linejoin="bevel" stroke-miterlimit="10"/><g transform="translate(217,187) rotate(0,0,0)"><text fill="" stroke="none" font-family="helvetica" font-size="14pt" font-style="normal" font-weight="normal" text-decoration="normal" x="0" y="0" text-anchor="end" dominant-baseline="central">Clashscore</text><g transform="rotate(0,0,0) translate(-217,-187) translate(217,127) rotate(0,0,0)"><text fill="" stroke="none" font-family="helvetica" font-size="14pt" font-style="normal" font-weight="normal" text-decoration="normal" x="0" y="0" text-anchor="end" dominant-baseline="central">Ramachandran Outliers</text><g transform="rotate(0,0,0) translate(-217,-127) translate(217,67) rotate(0,0,0)"><text fill="" stroke="none" font-family="helvetica" font-size="14pt" font-style="normal" font-weight="normal" text-decoration="normal" x="0" y="0" text-anchor="end" dominant-baseline="central">Sidechain Outliers</text><g transform="rotate(0,0,0) translate(-217,-67)"/></g></g></g></g></g><g clip-path="url(#HgpIgSEZAVXZ)"><g/></g></g></g></svg>