<svg version="1.1" xmlns="http://www.w3.org/2000/svg" xmlns:xlink="http://www.w3.org/1999/xlink" width="700" height="250" style="width: 700px; height: 250px;"><defs><clipPath id="THHuQFTZokTE"><path fill="none" stroke="none" d=" M 84 37 L 670 37 L 670 189 L 84 189 L 84 37 Z"/></clipPath><clipPath id="AEvERwLAqySc"><path fill="none" stroke="none" d=" M 84 37 L 670 37 L 670 189 L 84 189 L 84 37 Z"/></clipPath><clipPath id="XmloSTyWKhdc"><path fill="none" stroke="none" d=" M 84 37 L 670 37 L 670 189 L 84 189 L 84 37 Z"/></clipPath><clipPath id="DGJJfrekQUhB"><path fill="none" stroke="none" d=" M 84 37 L 670 37 L 670 189 L 84 189 L 84 37 Z"/></clipPath><clipPath id="PRzrqRXesRTD"><path fill="none" stroke="none" d=" M 84 37 L 670 37 L 670 189 L 84 189 L 84 37 Z"/></clipPath><clipPath id="KldeKJCGzkGT"><path fill="none" stroke="none" d=" M 84 37 L 670 37 L 670 189 L 84 189 L 84 37 Z"/></clipPath><clipPath id="PirDIPUCbhAf"><path fill="none" stroke="none" d=" M 84 37 L 670 37 L 670 189 L 84 189 L 84 37 Z"/></clipPath><clipPath id="MqNFEwhwRCiZ"><path fill="none" stroke="none" d=" M 84 37 L 670 37 L 670 189 L 84 189 L 84 37 Z"/></clipPath><clipPath id="OqCvmBWULihK"><path fill="none" stroke="none" d=" M 84 37 L 670 37 L 670 189 L 84 189 L 84 37 Z"/></clipPath><clipPath id="gvdSadwwkHec"><path fill="none" stroke="none" d=" M 84 37 L 670 37 L 670 189 L 84 189 L 84 37 Z"/></clipPath></defs><g><g transform="scale(1,1) translate(0.5,0.5)"><rect fill="#FFFFFF" stroke="none" x="0" y="0" width="700" height="250"/><rect fill="#ffffff" stroke="none" x="0" y="0" width="700" height="250"/><rect fill="#FFFFFF" stroke="none" x="84" y="37" width="586" height="152"/><rect fill="#ffffff" stroke="none" x="84" y="37" width="586" height="152"/><g><rect fill="none" stroke="#e5e5e5" x="84" y="37" width="586" height="152" stroke-linejoin="bevel" stroke-miterlimit="10"/></g><g clip-path="url(#THHuQFTZokTE)"><g><g><path fill="none" stroke="#e5e5e5" paint-order="fill stroke markers" d=" M 105 189 L 105 37" stroke-linejoin="bevel" stroke-miterlimit="10"/><path fill="none" stroke="#e5e5e5" paint-order="fill stroke markers" d=" M 187 189 L 187 37" stroke-linejoin="bevel" stroke-miterlimit="10"/><path fill="none" stroke="#e5e5e5" paint-order="fill stroke markers" d=" M 268 189 L 268 37" stroke-linejoin="bevel" stroke-miterlimit="10"/><path fill="none" stroke="#e5e5e5" paint-order="fill stroke markers" d=" M 349 189 L 349 37" stroke-linejoin="bevel" stroke-miterlimit="10"/><path fill="none" stroke="#e5e5e5" paint-order="fill stroke markers" d=" M 431 189 L 431 37" stroke-linejoin="bevel" stroke-miterlimit="10"/><path fill="none" stroke="#e5e5e5" paint-order="fill stroke markers" d=" M 512 189 L 512 37" stroke-linejoin="bevel" stroke-miterlimit="10"/><path fill="none" stroke="#e5e5e5" paint-order="fill stroke markers" d=" M 593 189 L 593 37" stroke-linejoin="bevel" stroke-miterlimit="10"/></g></g></g><g clip-path="url(#AEvERwLAqySc)"><g><g/></g></g><g clip-path="url(#XmloSTyWKhdc)"><g><g><path fill="none" stroke="none"/><path fill="#440154" stroke="none" paint-order="stroke fill markers" d=" M 84 160.5 L 411.99722222222226 160.5 L 411.99722222222226 179.5 L 84 179.5 L 84 160.5 Z" fill-opacity="0.8"/><path fill="none" stroke="#440154" paint-order="fill stroke markers" d=" M 84 160.5 L 411.99722222222226 160.5 L 411.99722222222226 179.5 L 84 179.5 L 84 160.5 Z" stroke-linejoin="bevel" stroke-miterlimit="10" stroke-opacity="0.8"/><path fill="#30678D" stroke="none" paint-order="stroke fill markers" d=" M 84 122.5 L 279.3333333333335 122.5 L 279.3333333333335 141.5 L 84 141.5 L 84 122.5 Z" fill-opacity="0.8"/><path fill="none" stroke="#30678D" paint-order="fill stroke markers" d=" M 84 122.5 L 279.3333333333335 122.5 L 279.3333333333335 141.5 L 84 141.5 L 84 122.5 Z" stroke-linejoin="bevel" stroke-miterlimit="10" stroke-opacity="0.8"/><path fill="#35B778" stroke="none" paint-order="stroke fill markers" d=" M 84 84.5 L 474.66666666666697 84.5 L 474.66666666666697 103.5 L 84 103.5 L 84 84.5 Z" fill-opacity="0.8"/><path fill="none" stroke="#35B778" paint-order="fill stroke markers" d=" M 84 84.5 L 474.66666666666697 84.5 L 474.66666666666697 103.5 L 84 103.5 L 84 84.5 Z" stroke-linejoin="bevel" stroke-miterlimit="10" stroke-opacity="0.8"/><path fill="#FDE724" stroke="none" paint-order="stroke fill markers" d=" M 84 46.5 L 417.6944444444448 46.5 L 417.6944444444448 65.5 L 84 65.5 L 84 46.5 Z" fill-opacity="0.8"/><path fill="none" stroke="#FDE724" paint-order="fill stroke markers" d=" M 84 46.5 L 417.6944444444448 46.5 L 417.6944444444448 65.5 L 84 65.5 L 84 46.5 Z" stroke-linejoin="bevel" stroke-miterlimit="10" stroke-opacity="0.8"/></g></g></g><g clip-path="url(#DGJJfrekQUhB)"><g><g/><g><path fill="#ffffff" stroke="#e5e5e5" paint-order="fill stroke markers" d=" M 532.5666656494141 47 L 660 47 L 660 156 L 532.5666656494141 156 L 532.5666656494141 47 Z" fill-opacity="0.95" stroke-linejoin="bevel" stroke-miterlimit="10" stroke-opacity="0.5"/><text fill="#444444" stroke="none" font-family="helvetica" font-size="13px" font-style="normal" font-weight="normal" text-decoration="normal" x="567.5666656494141" y="67" text-anchor="start" dominant-baseline="central">Model 1: 3677</text><rect fill="#440154" stroke="none" x="544.5666656494141" y="59" width="16" height="16" fill-opacity="0.8"/><path fill="none" stroke="#440154" paint-order="fill stroke markers" d=" M 544.5666656494141 59 L 560.5666656494141 59 L 560.5666656494141 75 L 544.5666656494141 75 L 544.5666656494141 59 Z" stroke-linejoin="bevel" stroke-miterlimit="10" stroke-opacity="0.8"/><text fill="#444444" stroke="none" font-family="helvetica" font-size="13px" font-style="normal" font-weight="normal" text-decoration="normal" x="567.5666656494141" y="90" text-anchor="start" dominant-baseline="central">Model 2: 3514</text><rect fill="#30678D" stroke="none" x="544.5666656494141" y="82" width="16" height="16" fill-opacity="0.8"/><path fill="none" stroke="#30678D" paint-order="fill stroke markers" d=" M 544.5666656494141 82 L 560.5666656494141 82 L 560.5666656494141 98 L 544.5666656494141 98 L 544.5666656494141 82 Z" stroke-linejoin="bevel" stroke-miterlimit="10" stroke-opacity="0.8"/><text fill="#444444" stroke="none" font-family="helvetica" font-size="13px" font-style="normal" font-weight="normal" text-decoration="normal" x="567.5666656494141" y="113" text-anchor="start" dominant-baseline="central">Model 3: 3754</text><rect fill="#35B778" stroke="none" x="544.5666656494141" y="105" width="16" height="16" fill-opacity="0.8"/><path fill="none" stroke="#35B778" paint-order="fill stroke markers" d=" M 544.5666656494141 105 L 560.5666656494141 105 L 560.5666656494141 121 L 544.5666656494141 121 L 544.5666656494141 105 Z" stroke-linejoin="bevel" stroke-miterlimit="10" stroke-opacity="0.8"/><text fill="#444444" stroke="none" font-family="helvetica" font-size="13px" font-style="normal" font-weight="normal" text-decoration="normal" x="567.5666656494141" y="136" text-anchor="start" dominant-baseline="central">Model 4: 3684</text><rect fill="#FDE724" stroke="none" x="544.5666656494141" y="128" width="16" height="16" fill-opacity="0.8"/><path fill="none" stroke="#FDE724" paint-order="fill stroke markers" d=" M 544.5666656494141 128 L 560.5666656494141 128 L 560.5666656494141 144 L 544.5666656494141 144 L 544.5666656494141 128 Z" stroke-linejoin="bevel" stroke-miterlimit="10" stroke-opacity="0.8"/></g></g></g><g><g fill="#444444"><path fill="" stroke="none" d=""/><g transform="translate(377,5)"><path fill="none" stroke="none"/><text fill="" stroke="none" font-family="helvetica" font-size="14pt" font-style="normal" font-weight="bold" text-decoration="normal" x="0" y="0" text-anchor="middle" dominant-baseline="text-before-edge">Model quality: Excluded Volume Analysis</text></g></g></g><g/><g><g fill="#444444"><path fill="none" stroke="black" paint-order="fill stroke markers" d=" M 84 189 L 670 189" stroke-linejoin="bevel" stroke-miterlimit="10"/><path fill="none" stroke="black" paint-order="fill stroke markers" d=" M 105 195 L 105 187" stroke-linejoin="bevel" stroke-miterlimit="10"/><path fill="none" stroke="black" paint-order="fill stroke markers" d=" M 187 195 L 187 187" stroke-linejoin="bevel" stroke-miterlimit="10"/><path fill="none" stroke="black" paint-order="fill stroke markers" d=" M 268 195 L 268 187" stroke-linejoin="bevel" stroke-miterlimit="10"/><path fill="none" stroke="black" paint-order="fill stroke markers" d=" M 349 195 L 349 187" stroke-linejoin="bevel" stroke-miterlimit="10"/><path fill="none" stroke="black" paint-order="fill stroke markers" d=" M 431 195 L 431 187" stroke-linejoin="bevel" stroke-miterlimit="10"/><path fill="none" stroke="black" paint-order="fill stroke markers" d=" M 512 195 L 512 187" stroke-linejoin="bevel" stroke-miterlimit="10"/><path fill="none" stroke="black" paint-order="fill stroke markers" d=" M 593 195 L 593 187" stroke-linejoin="bevel" stroke-miterlimit="10"/><path fill="none" stroke="black" paint-order="fill stroke markers" d=" M 89 193 L 89 189" stroke-linejoin="bevel" stroke-miterlimit="10"/><path fill="none" stroke="black" paint-order="fill stroke markers" d=" M 105 193 L 105 189" stroke-linejoin="bevel" stroke-miterlimit="10"/><path fill="none" stroke="black" paint-order="fill stroke markers" d=" M 121 193 L 121 189" stroke-linejoin="bevel" stroke-miterlimit="10"/><path fill="none" stroke="black" paint-order="fill stroke markers" d=" M 138 193 L 138 189" stroke-linejoin="bevel" stroke-miterlimit="10"/><path fill="none" stroke="black" paint-order="fill stroke markers" d=" M 154 193 L 154 189" stroke-linejoin="bevel" stroke-miterlimit="10"/><path fill="none" stroke="black" paint-order="fill stroke markers" d=" M 170 193 L 170 189" stroke-linejoin="bevel" stroke-miterlimit="10"/><path fill="none" stroke="black" paint-order="fill stroke markers" d=" M 187 193 L 187 189" stroke-linejoin="bevel" stroke-miterlimit="10"/><path fill="none" stroke="black" paint-order="fill stroke markers" d=" M 203 193 L 203 189" stroke-linejoin="bevel" stroke-miterlimit="10"/><path fill="none" stroke="black" paint-order="fill stroke markers" d=" M 219 193 L 219 189" stroke-linejoin="bevel" stroke-miterlimit="10"/><path fill="none" stroke="black" paint-order="fill stroke markers" d=" M 235 193 L 235 189" stroke-linejoin="bevel" stroke-miterlimit="10"/><path fill="none" stroke="black" paint-order="fill stroke markers" d=" M 252 193 L 252 189" stroke-linejoin="bevel" stroke-miterlimit="10"/><path fill="none" stroke="black" paint-order="fill stroke markers" d=" M 268 193 L 268 189" stroke-linejoin="bevel" stroke-miterlimit="10"/><path fill="none" stroke="black" paint-order="fill stroke markers" d=" M 284 193 L 284 189" stroke-linejoin="bevel" stroke-miterlimit="10"/><path fill="none" stroke="black" paint-order="fill stroke markers" d=" M 300 193 L 300 189" stroke-linejoin="bevel" stroke-miterlimit="10"/><path fill="none" stroke="black" paint-order="fill stroke markers" d=" M 317 193 L 317 189" stroke-linejoin="bevel" stroke-miterlimit="10"/><path fill="none" stroke="black" paint-order="fill stroke markers" d=" M 333 193 L 333 189" stroke-linejoin="bevel" stroke-miterlimit="10"/><path fill="none" stroke="black" paint-order="fill stroke markers" d=" M 349 193 L 349 189" stroke-linejoin="bevel" stroke-miterlimit="10"/><path fill="none" stroke="black" paint-order="fill stroke markers" d=" M 366 193 L 366 189" stroke-linejoin="bevel" stroke-miterlimit="10"/><path fill="none" stroke="black" paint-order="fill stroke markers" d=" M 382 193 L 382 189" stroke-linejoin="bevel" stroke-miterlimit="10"/><path fill="none" stroke="black" paint-order="fill stroke markers" d=" M 398 193 L 398 189" stroke-linejoin="bevel" stroke-miterlimit="10"/><path fill="none" stroke="black" paint-order="fill stroke markers" d=" M 414 193 L 414 189" stroke-linejoin="bevel" stroke-miterlimit="10"/><path fill="none" stroke="black" paint-order="fill stroke markers" d=" M 431 193 L 431 189" stroke-linejoin="bevel" stroke-miterlimit="10"/><path fill="none" stroke="black" paint-order="fill stroke markers" d=" M 447 193 L 447 189" stroke-linejoin="bevel" stroke-miterlimit="10"/><path fill="none" stroke="black" paint-order="fill stroke markers" d=" M 463 193 L 463 189" stroke-linejoin="bevel" stroke-miterlimit="10"/><path fill="none" stroke="black" paint-order="fill stroke markers" d=" M 480 193 L 480 189" stroke-linejoin="bevel" stroke-miterlimit="10"/><path fill="none" stroke="black" paint-order="fill stroke markers" d=" M 496 193 L 496 189" stroke-linejoin="bevel" stroke-miterlimit="10"/><path fill="none" stroke="black" paint-order="fill stroke markers" d=" M 512 193 L 512 189" stroke-linejoin="bevel" stroke-miterlimit="10"/><path fill="none" stroke="black" paint-order="fill stroke markers" d=" M 528 193 L 528 189" stroke-linejoin="bevel" stroke-miterlimit="10"/><path fill="none" stroke="black" paint-order="fill stroke markers" d=" M 545 193 L 545 189" stroke-linejoin="bevel" stroke-miterlimit="10"/><path fill="none" stroke="black" paint-order="fill stroke markers" d=" M 561 193 L 561 189" stroke-linejoin="bevel" stroke-miterlimit="10"/><path fill="none" stroke="black" paint-order="fill stroke markers" d=" M 577 193 L 577 189" stroke-linejoin="bevel" stroke-miterlimit="10"/><path fill="none" stroke="black" paint-order="fill stroke markers" d=" M 593 193 L 593 189" stroke-linejoin="bevel" stroke-miterlimit="10"/><path fill="none" stroke="black" paint-order="fill stroke markers" d=" M 610 193 L 610 189" stroke-linejoin="bevel" stroke-miterlimit="10"/><path fill="none" stroke="black" paint-order="fill stroke markers" d=" M 626 193 L 626 189" stroke-linejoin="bevel" stroke-miterlimit="10"/><path fill="none" stroke="black" paint-order="fill stroke markers" d=" M 642 193 L 642 189" stroke-linejoin="bevel" stroke-miterlimit="10"/><path fill="" stroke="black" paint-order="fill stroke markers" d=" M 659 193 L 659 189" stroke-linejoin="bevel" stroke-miterlimit="10"/><g transform="translate(105,200) rotate(0,0,0)"><text fill="" stroke="none" font-family="helvetica" font-size="14pt" font-style="normal" font-weight="normal" text-decoration="normal" x="0" y="0" text-anchor="middle" dominant-baseline="hanging">3300</text><g transform="rotate(0,0,0) translate(-105,-200) translate(187,200) rotate(0,0,0)"><text fill="" stroke="none" font-family="helvetica" font-size="14pt" font-style="normal" font-weight="normal" text-decoration="normal" x="0" y="0" text-anchor="middle" dominant-baseline="hanging">3400</text><g transform="rotate(0,0,0) translate(-187,-200) translate(268,200) rotate(0,0,0)"><text fill="" stroke="none" font-family="helvetica" font-size="14pt" font-style="normal" font-weight="normal" text-decoration="normal" x="0" y="0" text-anchor="middle" dominant-baseline="hanging">3500</text><g transform="rotate(0,0,0) translate(-268,-200) translate(349,200) rotate(0,0,0)"><text fill="" stroke="none" font-family="helvetica" font-size="14pt" font-style="normal" font-weight="normal" text-decoration="normal" x="0" y="0" text-anchor="middle" dominant-baseline="hanging">3600</text><g transform="rotate(0,0,0) translate(-349,-200) translate(431,200) rotate(0,0,0)"><text fill="" stroke="none" font-family="helvetica" font-size="14pt" font-style="normal" font-weight="normal" text-decoration="normal" x="0" y="0" text-anchor="middle" dominant-baseline="hanging">3700</text><g transform="rotate(0,0,0) translate(-431,-200) translate(512,200) rotate(0,0,0)"><text fill="" stroke="none" font-family="helvetica" font-size="14pt" font-style="normal" font-weight="normal" text-decoration="normal" x="0" y="0" text-anchor="middle" dominant-baseline="hanging">3800</text><g transform="rotate(0,0,0) translate(-512,-200) translate(593,200) rotate(0,0,0)"><text fill="" stroke="none" font-family="helvetica" font-size="14pt" font-style="normal" font-weight="normal" text-decoration="normal" x="0" y="0" text-anchor="middle" dominant-baseline="hanging">3900</text><g transform="rotate(0,0,0) translate(-593,-200) translate(377,227) rotate(0,0,0)"><text fill="" stroke="none" font-family="helvetica" font-size="14pt" font-style="italic" font-weight="normal" text-decoration="normal" x="0" y="0" text-anchor="middle" dominant-baseline="hanging">Number of violations</text><g transform="rotate(0,0,0) translate(-377,-227)"/></g></g></g></g></g></g></g></g></g></g><g><g fill="#444444"><path fill="none" stroke="black" paint-order="fill stroke markers" d=" M 84 189 L 84 37" stroke-linejoin="bevel" stroke-miterlimit="10"/><path fill="none" stroke="black" paint-order="fill stroke markers" d=" M 78 170 L 86 170" stroke-linejoin="bevel" stroke-miterlimit="10"/><path fill="none" stroke="black" paint-order="fill stroke markers" d=" M 78 132 L 86 132" stroke-linejoin="bevel" stroke-miterlimit="10"/><path fill="none" stroke="black" paint-order="fill stroke markers" d=" M 78 94 L 86 94" stroke-linejoin="bevel" stroke-miterlimit="10"/><path fill="" stroke="black" paint-order="fill stroke markers" d=" M 78 56 L 86 56" stroke-linejoin="bevel" stroke-miterlimit="10"/><g transform="translate(73,170) rotate(0,0,0)"><text fill="" stroke="none" font-family="helvetica" font-size="14pt" font-style="normal" font-weight="normal" text-decoration="normal" x="0" y="0" text-anchor="end" dominant-baseline="central">Model 1</text><g transform="rotate(0,0,0) translate(-73,-170) translate(73,132) rotate(0,0,0)"><text fill="" stroke="none" font-family="helvetica" font-size="14pt" font-style="normal" font-weight="normal" text-decoration="normal" x="0" y="0" text-anchor="end" dominant-baseline="central">Model 2</text><g transform="rotate(0,0,0) translate(-73,-132) translate(73,94) rotate(0,0,0)"><text fill="" stroke="none" font-family="helvetica" font-size="14pt" font-style="normal" font-weight="normal" text-decoration="normal" x="0" y="0" text-anchor="end" dominant-baseline="central">Model 3</text><g transform="rotate(0,0,0) translate(-73,-94) translate(73,56) rotate(0,0,0)"><text fill="" stroke="none" font-family="helvetica" font-size="14pt" font-style="normal" font-weight="normal" text-decoration="normal" x="0" y="0" text-anchor="end" dominant-baseline="central">Model 4</text><g transform="rotate(0,0,0) translate(-73,-56)"/></g></g></g></g></g></g><g clip-path="url(#PRzrqRXesRTD)"><g/></g></g><g transform="scale(1,1) translate(0.5,0.5)"><rect fill="#FFFFFF" stroke="none" x="0" y="0" width="700" height="250"/><rect fill="#ffffff" stroke="none" x="0" y="0" width="700" height="250"/><rect fill="#FFFFFF" stroke="none" x="84" y="37" width="586" height="152"/><rect fill="#ffffff" stroke="none" x="84" y="37" width="586" height="152"/><g><rect fill="none" stroke="#e5e5e5" x="84" y="37" width="586" height="152" stroke-linejoin="bevel" stroke-miterlimit="10"/></g><g clip-path="url(#KldeKJCGzkGT)"><g><g><path fill="none" stroke="#e5e5e5" paint-order="fill stroke markers" d=" M 105 189 L 105 37" stroke-linejoin="bevel" stroke-miterlimit="10"/><path fill="none" stroke="#e5e5e5" paint-order="fill stroke markers" d=" M 187 189 L 187 37" stroke-linejoin="bevel" stroke-miterlimit="10"/><path fill="none" stroke="#e5e5e5" paint-order="fill stroke markers" d=" M 268 189 L 268 37" stroke-linejoin="bevel" stroke-miterlimit="10"/><path fill="none" stroke="#e5e5e5" paint-order="fill stroke markers" d=" M 349 189 L 349 37" stroke-linejoin="bevel" stroke-miterlimit="10"/><path fill="none" stroke="#e5e5e5" paint-order="fill stroke markers" d=" M 431 189 L 431 37" stroke-linejoin="bevel" stroke-miterlimit="10"/><path fill="none" stroke="#e5e5e5" paint-order="fill stroke markers" d=" M 512 189 L 512 37" stroke-linejoin="bevel" stroke-miterlimit="10"/><path fill="none" stroke="#e5e5e5" paint-order="fill stroke markers" d=" M 593 189 L 593 37" stroke-linejoin="bevel" stroke-miterlimit="10"/></g></g></g><g clip-path="url(#PirDIPUCbhAf)"><g><g/></g></g><g clip-path="url(#MqNFEwhwRCiZ)"><g><g><path fill="none" stroke="none"/><path fill="#440154" stroke="none" paint-order="stroke fill markers" d=" M 84 160.5 L 411.99722222222226 160.5 L 411.99722222222226 179.5 L 84 179.5 L 84 160.5 Z" fill-opacity="0.8"/><path fill="none" stroke="#440154" paint-order="fill stroke markers" d=" M 84 160.5 L 411.99722222222226 160.5 L 411.99722222222226 179.5 L 84 179.5 L 84 160.5 Z" stroke-linejoin="bevel" stroke-miterlimit="10" stroke-opacity="0.8"/><path fill="#30678D" stroke="none" paint-order="stroke fill markers" d=" M 84 122.5 L 279.3333333333335 122.5 L 279.3333333333335 141.5 L 84 141.5 L 84 122.5 Z" fill-opacity="0.8"/><path fill="none" stroke="#30678D" paint-order="fill stroke markers" d=" M 84 122.5 L 279.3333333333335 122.5 L 279.3333333333335 141.5 L 84 141.5 L 84 122.5 Z" stroke-linejoin="bevel" stroke-miterlimit="10" stroke-opacity="0.8"/><path fill="#35B778" stroke="none" paint-order="stroke fill markers" d=" M 84 84.5 L 474.66666666666697 84.5 L 474.66666666666697 103.5 L 84 103.5 L 84 84.5 Z" fill-opacity="0.8"/><path fill="none" stroke="#35B778" paint-order="fill stroke markers" d=" M 84 84.5 L 474.66666666666697 84.5 L 474.66666666666697 103.5 L 84 103.5 L 84 84.5 Z" stroke-linejoin="bevel" stroke-miterlimit="10" stroke-opacity="0.8"/><path fill="#FDE724" stroke="none" paint-order="stroke fill markers" d=" M 84 46.5 L 417.6944444444448 46.5 L 417.6944444444448 65.5 L 84 65.5 L 84 46.5 Z" fill-opacity="0.8"/><path fill="none" stroke="#FDE724" paint-order="fill stroke markers" d=" M 84 46.5 L 417.6944444444448 46.5 L 417.6944444444448 65.5 L 84 65.5 L 84 46.5 Z" stroke-linejoin="bevel" stroke-miterlimit="10" stroke-opacity="0.8"/></g></g></g><g clip-path="url(#OqCvmBWULihK)"><g><g/><g><path fill="#ffffff" stroke="#e5e5e5" paint-order="fill stroke markers" d=" M 532.5666656494141 47 L 660 47 L 660 156 L 532.5666656494141 156 L 532.5666656494141 47 Z" fill-opacity="0.95" stroke-linejoin="bevel" stroke-miterlimit="10" stroke-opacity="0.5"/><text fill="#444444" stroke="none" font-family="helvetica" font-size="13px" font-style="normal" font-weight="normal" text-decoration="normal" x="567.5666656494141" y="67" text-anchor="start" dominant-baseline="central">Model 1: 3677</text><rect fill="#440154" stroke="none" x="544.5666656494141" y="59" width="16" height="16" fill-opacity="0.8"/><path fill="none" stroke="#440154" paint-order="fill stroke markers" d=" M 544.5666656494141 59 L 560.5666656494141 59 L 560.5666656494141 75 L 544.5666656494141 75 L 544.5666656494141 59 Z" stroke-linejoin="bevel" stroke-miterlimit="10" stroke-opacity="0.8"/><text fill="#444444" stroke="none" font-family="helvetica" font-size="13px" font-style="normal" font-weight="normal" text-decoration="normal" x="567.5666656494141" y="90" text-anchor="start" dominant-baseline="central">Model 2: 3514</text><rect fill="#30678D" stroke="none" x="544.5666656494141" y="82" width="16" height="16" fill-opacity="0.8"/><path fill="none" stroke="#30678D" paint-order="fill stroke markers" d=" M 544.5666656494141 82 L 560.5666656494141 82 L 560.5666656494141 98 L 544.5666656494141 98 L 544.5666656494141 82 Z" stroke-linejoin="bevel" stroke-miterlimit="10" stroke-opacity="0.8"/><text fill="#444444" stroke="none" font-family="helvetica" font-size="13px" font-style="normal" font-weight="normal" text-decoration="normal" x="567.5666656494141" y="113" text-anchor="start" dominant-baseline="central">Model 3: 3754</text><rect fill="#35B778" stroke="none" x="544.5666656494141" y="105" width="16" height="16" fill-opacity="0.8"/><path fill="none" stroke="#35B778" paint-order="fill stroke markers" d=" M 544.5666656494141 105 L 560.5666656494141 105 L 560.5666656494141 121 L 544.5666656494141 121 L 544.5666656494141 105 Z" stroke-linejoin="bevel" stroke-miterlimit="10" stroke-opacity="0.8"/><text fill="#444444" stroke="none" font-family="helvetica" font-size="13px" font-style="normal" font-weight="normal" text-decoration="normal" x="567.5666656494141" y="136" text-anchor="start" dominant-baseline="central">Model 4: 3684</text><rect fill="#FDE724" stroke="none" x="544.5666656494141" y="128" width="16" height="16" fill-opacity="0.8"/><path fill="none" stroke="#FDE724" paint-order="fill stroke markers" d=" M 544.5666656494141 128 L 560.5666656494141 128 L 560.5666656494141 144 L 544.5666656494141 144 L 544.5666656494141 128 Z" stroke-linejoin="bevel" stroke-miterlimit="10" stroke-opacity="0.8"/></g></g></g><g><g fill="#444444"><path fill="" stroke="none" d=""/><g transform="translate(377,5)"><path fill="none" stroke="none"/><text fill="" stroke="none" font-family="helvetica" font-size="14pt" font-style="normal" font-weight="bold" text-decoration="normal" x="0" y="0" text-anchor="middle" dominant-baseline="text-before-edge">Model quality: Excluded Volume Analysis</text></g></g></g><g/><g><g fill="#444444"><path fill="none" stroke="black" paint-order="fill stroke markers" d=" M 84 189 L 670 189" stroke-linejoin="bevel" stroke-miterlimit="10"/><path fill="none" stroke="black" paint-order="fill stroke markers" d=" M 105 195 L 105 187" stroke-linejoin="bevel" stroke-miterlimit="10"/><path fill="none" stroke="black" paint-order="fill stroke markers" d=" M 187 195 L 187 187" stroke-linejoin="bevel" stroke-miterlimit="10"/><path fill="none" stroke="black" paint-order="fill stroke markers" d=" M 268 195 L 268 187" stroke-linejoin="bevel" stroke-miterlimit="10"/><path fill="none" stroke="black" paint-order="fill stroke markers" d=" M 349 195 L 349 187" stroke-linejoin="bevel" stroke-miterlimit="10"/><path fill="none" stroke="black" paint-order="fill stroke markers" d=" M 431 195 L 431 187" stroke-linejoin="bevel" stroke-miterlimit="10"/><path fill="none" stroke="black" paint-order="fill stroke markers" d=" M 512 195 L 512 187" stroke-linejoin="bevel" stroke-miterlimit="10"/><path fill="none" stroke="black" paint-order="fill stroke markers" d=" M 593 195 L 593 187" stroke-linejoin="bevel" stroke-miterlimit="10"/><path fill="none" stroke="black" paint-order="fill stroke markers" d=" M 89 193 L 89 189" stroke-linejoin="bevel" stroke-miterlimit="10"/><path fill="none" stroke="black" paint-order="fill stroke markers" d=" M 105 193 L 105 189" stroke-linejoin="bevel" stroke-miterlimit="10"/><path fill="none" stroke="black" paint-order="fill stroke markers" d=" M 121 193 L 121 189" stroke-linejoin="bevel" stroke-miterlimit="10"/><path fill="none" stroke="black" paint-order="fill stroke markers" d=" M 138 193 L 138 189" stroke-linejoin="bevel" stroke-miterlimit="10"/><path fill="none" stroke="black" paint-order="fill stroke markers" d=" M 154 193 L 154 189" stroke-linejoin="bevel" stroke-miterlimit="10"/><path fill="none" stroke="black" paint-order="fill stroke markers" d=" M 170 193 L 170 189" stroke-linejoin="bevel" stroke-miterlimit="10"/><path fill="none" stroke="black" paint-order="fill stroke markers" d=" M 187 193 L 187 189" stroke-linejoin="bevel" stroke-miterlimit="10"/><path fill="none" stroke="black" paint-order="fill stroke markers" d=" M 203 193 L 203 189" stroke-linejoin="bevel" stroke-miterlimit="10"/><path fill="none" stroke="black" paint-order="fill stroke markers" d=" M 219 193 L 219 189" stroke-linejoin="bevel" stroke-miterlimit="10"/><path fill="none" stroke="black" paint-order="fill stroke markers" d=" M 235 193 L 235 189" stroke-linejoin="bevel" stroke-miterlimit="10"/><path fill="none" stroke="black" paint-order="fill stroke markers" d=" M 252 193 L 252 189" stroke-linejoin="bevel" stroke-miterlimit="10"/><path fill="none" stroke="black" paint-order="fill stroke markers" d=" M 268 193 L 268 189" stroke-linejoin="bevel" stroke-miterlimit="10"/><path fill="none" stroke="black" paint-order="fill stroke markers" d=" M 284 193 L 284 189" stroke-linejoin="bevel" stroke-miterlimit="10"/><path fill="none" stroke="black" paint-order="fill stroke markers" d=" M 300 193 L 300 189" stroke-linejoin="bevel" stroke-miterlimit="10"/><path fill="none" stroke="black" paint-order="fill stroke markers" d=" M 317 193 L 317 189" stroke-linejoin="bevel" stroke-miterlimit="10"/><path fill="none" stroke="black" paint-order="fill stroke markers" d=" M 333 193 L 333 189" stroke-linejoin="bevel" stroke-miterlimit="10"/><path fill="none" stroke="black" paint-order="fill stroke markers" d=" M 349 193 L 349 189" stroke-linejoin="bevel" stroke-miterlimit="10"/><path fill="none" stroke="black" paint-order="fill stroke markers" d=" M 366 193 L 366 189" stroke-linejoin="bevel" stroke-miterlimit="10"/><path fill="none" stroke="black" paint-order="fill stroke markers" d=" M 382 193 L 382 189" stroke-linejoin="bevel" stroke-miterlimit="10"/><path fill="none" stroke="black" paint-order="fill stroke markers" d=" M 398 193 L 398 189" stroke-linejoin="bevel" stroke-miterlimit="10"/><path fill="none" stroke="black" paint-order="fill stroke markers" d=" M 414 193 L 414 189" stroke-linejoin="bevel" stroke-miterlimit="10"/><path fill="none" stroke="black" paint-order="fill stroke markers" d=" M 431 193 L 431 189" stroke-linejoin="bevel" stroke-miterlimit="10"/><path fill="none" stroke="black" paint-order="fill stroke markers" d=" M 447 193 L 447 189" stroke-linejoin="bevel" stroke-miterlimit="10"/><path fill="none" stroke="black" paint-order="fill stroke markers" d=" M 463 193 L 463 189" stroke-linejoin="bevel" stroke-miterlimit="10"/><path fill="none" stroke="black" paint-order="fill stroke markers" d=" M 480 193 L 480 189" stroke-linejoin="bevel" stroke-miterlimit="10"/><path fill="none" stroke="black" paint-order="fill stroke markers" d=" M 496 193 L 496 189" stroke-linejoin="bevel" stroke-miterlimit="10"/><path fill="none" stroke="black" paint-order="fill stroke markers" d=" M 512 193 L 512 189" stroke-linejoin="bevel" stroke-miterlimit="10"/><path fill="none" stroke="black" paint-order="fill stroke markers" d=" M 528 193 L 528 189" stroke-linejoin="bevel" stroke-miterlimit="10"/><path fill="none" stroke="black" paint-order="fill stroke markers" d=" M 545 193 L 545 189" stroke-linejoin="bevel" stroke-miterlimit="10"/><path fill="none" stroke="black" paint-order="fill stroke markers" d=" M 561 193 L 561 189" stroke-linejoin="bevel" stroke-miterlimit="10"/><path fill="none" stroke="black" paint-order="fill stroke markers" d=" M 577 193 L 577 189" stroke-linejoin="bevel" stroke-miterlimit="10"/><path fill="none" stroke="black" paint-order="fill stroke markers" d=" M 593 193 L 593 189" stroke-linejoin="bevel" stroke-miterlimit="10"/><path fill="none" stroke="black" paint-order="fill stroke markers" d=" M 610 193 L 610 189" stroke-linejoin="bevel" stroke-miterlimit="10"/><path fill="none" stroke="black" paint-order="fill stroke markers" d=" M 626 193 L 626 189" stroke-linejoin="bevel" stroke-miterlimit="10"/><path fill="none" stroke="black" paint-order="fill stroke markers" d=" M 642 193 L 642 189" stroke-linejoin="bevel" stroke-miterlimit="10"/><path fill="" stroke="black" paint-order="fill stroke markers" d=" M 659 193 L 659 189" stroke-linejoin="bevel" stroke-miterlimit="10"/><g transform="translate(105,200) rotate(0,0,0)"><text fill="" stroke="none" font-family="helvetica" font-size="14pt" font-style="normal" font-weight="normal" text-decoration="normal" x="0" y="0" text-anchor="middle" dominant-baseline="hanging">3300</text><g transform="rotate(0,0,0) translate(-105,-200) translate(187,200) rotate(0,0,0)"><text fill="" stroke="none" font-family="helvetica" font-size="14pt" font-style="normal" font-weight="normal" text-decoration="normal" x="0" y="0" text-anchor="middle" dominant-baseline="hanging">3400</text><g transform="rotate(0,0,0) translate(-187,-200) translate(268,200) rotate(0,0,0)"><text fill="" stroke="none" font-family="helvetica" font-size="14pt" font-style="normal" font-weight="normal" text-decoration="normal" x="0" y="0" text-anchor="middle" dominant-baseline="hanging">3500</text><g transform="rotate(0,0,0) translate(-268,-200) translate(349,200) rotate(0,0,0)"><text fill="" stroke="none" font-family="helvetica" font-size="14pt" font-style="normal" font-weight="normal" text-decoration="normal" x="0" y="0" text-anchor="middle" dominant-baseline="hanging">3600</text><g transform="rotate(0,0,0) translate(-349,-200) translate(431,200) rotate(0,0,0)"><text fill="" stroke="none" font-family="helvetica" font-size="14pt" font-style="normal" font-weight="normal" text-decoration="normal" x="0" y="0" text-anchor="middle" dominant-baseline="hanging">3700</text><g transform="rotate(0,0,0) translate(-431,-200) translate(512,200) rotate(0,0,0)"><text fill="" stroke="none" font-family="helvetica" font-size="14pt" font-style="normal" font-weight="normal" text-decoration="normal" x="0" y="0" text-anchor="middle" dominant-baseline="hanging">3800</text><g transform="rotate(0,0,0) translate(-512,-200) translate(593,200) rotate(0,0,0)"><text fill="" stroke="none" font-family="helvetica" font-size="14pt" font-style="normal" font-weight="normal" text-decoration="normal" x="0" y="0" text-anchor="middle" dominant-baseline="hanging">3900</text><g transform="rotate(0,0,0) translate(-593,-200) translate(377,227) rotate(0,0,0)"><text fill="" stroke="none" font-family="helvetica" font-size="14pt" font-style="italic" font-weight="normal" text-decoration="normal" x="0" y="0" text-anchor="middle" dominant-baseline="hanging">Number of violations</text><g transform="rotate(0,0,0) translate(-377,-227)"/></g></g></g></g></g></g></g></g></g></g><g><g fill="#444444"><path fill="none" stroke="black" paint-order="fill stroke markers" d=" M 84 189 L 84 37" stroke-linejoin="bevel" stroke-miterlimit="10"/><path fill="none" stroke="black" paint-order="fill stroke markers" d=" M 78 170 L 86 170" stroke-linejoin="bevel" stroke-miterlimit="10"/><path fill="none" stroke="black" paint-order="fill stroke markers" d=" M 78 132 L 86 132" stroke-linejoin="bevel" stroke-miterlimit="10"/><path fill="none" stroke="black" paint-order="fill stroke markers" d=" M 78 94 L 86 94" stroke-linejoin="bevel" stroke-miterlimit="10"/><path fill="" stroke="black" paint-order="fill stroke markers" d=" M 78 56 L 86 56" stroke-linejoin="bevel" stroke-miterlimit="10"/><g transform="translate(73,170) rotate(0,0,0)"><text fill="" stroke="none" font-family="helvetica" font-size="14pt" font-style="normal" font-weight="normal" text-decoration="normal" x="0" y="0" text-anchor="end" dominant-baseline="central">Model 1</text><g transform="rotate(0,0,0) translate(-73,-170) translate(73,132) rotate(0,0,0)"><text fill="" stroke="none" font-family="helvetica" font-size="14pt" font-style="normal" font-weight="normal" text-decoration="normal" x="0" y="0" text-anchor="end" dominant-baseline="central">Model 2</text><g transform="rotate(0,0,0) translate(-73,-132) translate(73,94) rotate(0,0,0)"><text fill="" stroke="none" font-family="helvetica" font-size="14pt" font-style="normal" font-weight="normal" text-decoration="normal" x="0" y="0" text-anchor="end" dominant-baseline="central">Model 3</text><g transform="rotate(0,0,0) translate(-73,-94) translate(73,56) rotate(0,0,0)"><text fill="" stroke="none" font-family="helvetica" font-size="14pt" font-style="normal" font-weight="normal" text-decoration="normal" x="0" y="0" text-anchor="end" dominant-baseline="central">Model 4</text><g transform="rotate(0,0,0) translate(-73,-56)"/></g></g></g></g></g></g><g clip-path="url(#gvdSadwwkHec)"><g/></g></g></g></svg>